<?xml version="1.0" standalone="no"?>
<!DOCTYPE svg PUBLIC "-//W3C//DTD SVG 20010904//EN"
 "http://www.w3.org/TR/2001/REC-SVG-20010904/DTD/svg10.dtd">
<svg version="1.0" xmlns="http://www.w3.org/2000/svg"
 width="1280.000000pt" height="800.000000pt" viewBox="0 0 1280.000000 800.000000"
 preserveAspectRatio="xMidYMid meet">
<metadata>
Created by potrace 1.15, written by Peter Selinger 2001-2017
</metadata>
<g transform="translate(0.000000,800.000000) scale(0.100000,-0.100000)"
fill="#fff" stroke="none">
<path d="M9490 7703 c-25 -8 -63 -24 -85 -35 -22 -12 -53 -28 -70 -36 -42 -21
-155 -140 -155 -162 0 -11 -7 -23 -16 -28 -16 -9 -36 -70 -55 -171 -6 -30 -17
-64 -24 -75 -20 -31 -19 -215 1 -237 8 -9 17 -40 19 -69 2 -28 6 -54 9 -58 4
-3 3 -20 0 -39 -5 -25 -2 -34 10 -39 20 -8 21 -28 0 -44 -19 -17 -15 -60 8
-74 14 -8 21 -6 32 9 14 20 15 20 40 -4 14 -14 26 -32 26 -42 0 -17 -7 -21
-61 -33 -28 -6 -41 -33 -43 -91 -1 -29 -3 -30 -61 -37 -97 -13 -265 -29 -330
-33 -53 -2 -63 -6 -86 -34 -14 -17 -31 -31 -37 -31 -7 0 -20 -6 -29 -14 -109
-89 -186 -146 -198 -146 -19 0 -30 -46 -17 -74 8 -19 3 -30 -34 -77 -58 -71
-112 -134 -146 -171 -15 -16 -42 -50 -60 -75 -35 -48 -82 -104 -134 -160 -18
-18 -35 -44 -38 -58 -5 -20 -13 -25 -36 -25 -25 0 -30 -4 -30 -23 0 -24 -82
-105 -121 -119 -10 -4 -19 -17 -19 -28 0 -12 -10 -25 -24 -31 -13 -6 -27 -20
-29 -30 -3 -11 -12 -19 -21 -19 -10 0 -16 -9 -16 -24 0 -32 17 -42 39 -22 25
22 30 21 68 -21 23 -25 37 -53 44 -86 5 -27 11 -53 15 -58 12 -19 -7 -49 -32
-49 -19 0 -24 -5 -24 -25 0 -14 4 -25 9 -25 18 0 43 -54 47 -103 3 -29 9 -63
14 -77 5 -14 10 -34 12 -45 2 -15 11 -20 38 -20 22 0 35 -5 34 -12 -1 -7 -2
-24 -2 -38 -2 -17 -8 -25 -20 -25 -10 0 -21 -3 -25 -6 -10 -10 21 -50 48 -62
19 -9 25 -19 25 -45 0 -20 8 -42 20 -55 19 -20 20 -27 10 -85 -7 -34 -15 -66
-20 -72 -12 -15 -13 -195 -1 -195 5 0 13 5 17 11 9 15 30 -35 37 -92 9 -66 18
-89 33 -89 8 0 14 -10 14 -22 0 -28 35 -87 56 -95 23 -9 35 16 28 62 l-5 40
26 -30 c14 -16 33 -40 41 -52 45 -63 99 8 57 75 -12 20 -4 15 33 -19 35 -33
55 -44 72 -41 22 3 23 7 17 45 -4 23 -11 50 -17 60 -5 11 -5 17 1 17 6 0 15
-9 21 -20 12 -23 47 -26 73 -6 12 10 15 16 7 21 -6 4 -9 14 -6 22 4 9 -9 36
-29 64 -19 27 -35 56 -35 64 0 8 -9 39 -21 70 -12 31 -18 59 -15 63 9 9 66
-26 102 -63 29 -29 31 -36 38 -135 4 -58 11 -134 16 -170 5 -36 11 -98 14
-138 2 -40 9 -78 14 -85 10 -12 30 -173 38 -307 3 -41 11 -97 18 -125 8 -27
14 -71 13 -97 0 -26 4 -53 9 -60 6 -7 16 -38 23 -68 8 -30 16 -59 20 -65 3 -5
13 -41 23 -80 16 -71 12 -95 -17 -95 -20 0 -25 -64 -20 -263 4 -140 9 -195 20
-217 8 -16 15 -51 15 -79 0 -27 5 -53 10 -56 12 -7 30 36 30 71 0 29 19 31 43
4 18 -21 37 -117 37 -189 0 -30 11 -68 34 -115 32 -68 55 -170 62 -276 6 -92
37 -236 61 -285 19 -40 24 -66 24 -130 0 -108 6 -137 27 -131 24 8 50 -9 28
-17 -22 -9 -21 -47 2 -47 30 0 42 -19 28 -43 -48 -87 -58 -97 -137 -134 -43
-21 -79 -42 -79 -47 0 -11 -68 -76 -80 -76 -5 0 -15 -6 -22 -13 -7 -7 -25 -20
-41 -30 -22 -14 -26 -22 -21 -44 5 -18 3 -24 -4 -19 -14 8 -32 -25 -32 -59 0
-15 7 -28 18 -32 9 -4 35 -18 57 -32 22 -14 53 -31 69 -38 69 -31 203 -4 325
66 47 27 122 66 166 86 44 21 83 43 87 49 4 6 8 54 8 107 l0 95 -36 39 c-30
34 -33 41 -20 50 13 10 12 13 -5 25 -28 21 -24 27 19 26 45 -1 51 18 27 85
-10 24 -20 64 -25 89 -4 25 -13 70 -20 100 -8 38 -13 192 -14 500 -1 245 -5
450 -9 456 -9 15 22 90 32 78 5 -5 14 -31 21 -59 7 -27 17 -55 22 -61 20 -26
37 -115 37 -189 0 -44 2 -93 5 -110 3 -16 8 -55 11 -85 3 -30 8 -61 11 -69 2
-7 7 -57 10 -110 3 -53 10 -114 16 -136 5 -22 12 -114 15 -205 5 -157 1 -207
-27 -344 -8 -42 -7 -52 7 -68 9 -10 25 -18 36 -18 17 0 18 -5 12 -37 -3 -21
-13 -43 -21 -49 -8 -6 -14 -22 -14 -35 1 -20 8 -169 10 -190 0 -3 23 -18 51
-33 27 -16 83 -52 122 -82 111 -84 143 -96 260 -101 110 -4 152 7 161 43 3 12
15 24 26 27 17 4 20 13 20 59 0 48 -3 57 -29 76 -16 12 -31 32 -33 44 -2 17
-11 24 -30 26 -20 2 -32 13 -43 35 -8 18 -40 59 -69 92 -51 56 -54 63 -51 104
3 27 10 48 20 53 19 11 19 64 0 98 -8 14 -14 49 -15 78 0 29 -6 61 -12 72 -10
15 -10 26 0 52 6 18 14 80 17 138 3 58 7 130 10 160 2 30 7 84 10 120 3 36 10
94 16 130 6 36 12 144 14 240 1 96 6 187 10 203 10 37 29 35 22 -3 -7 -35 10
-92 27 -87 6 2 14 41 18 93 4 49 11 121 16 159 5 39 5 83 0 100 -4 16 -8 38
-8 47 0 20 26 24 33 6 3 -7 6 0 6 15 1 16 -6 35 -14 44 -11 11 -13 19 -5 28 7
9 7 21 0 39 -5 15 -10 43 -10 62 0 28 -5 36 -26 44 -14 6 -29 8 -33 6 -4 -3
-17 10 -29 28 -22 32 -22 37 -12 142 6 60 13 136 16 169 2 33 10 98 17 145 7
49 11 152 9 242 -4 153 -3 157 22 200 14 25 26 52 26 60 0 19 62 129 69 123 2
-3 3 -48 2 -100 -2 -91 -1 -96 21 -104 14 -5 28 -5 35 1 12 10 83 217 83 243
0 9 11 27 24 40 31 31 100 175 122 253 10 34 22 62 29 62 20 0 60 64 70 114 9
45 35 77 35 43 0 -7 9 -22 21 -33 27 -25 44 -13 83 59 17 31 36 57 41 57 18 0
95 117 103 157 6 29 13 37 26 35 25 -5 66 36 66 64 0 25 -21 45 -28 26 -8 -26
-22 -10 -19 23 4 36 31 85 47 85 6 0 10 6 10 13 0 7 12 29 26 50 25 38 26 38
51 22 20 -13 31 -15 49 -7 18 9 28 7 49 -9 32 -26 56 -19 47 13 -3 13 -12 29
-19 36 -7 8 -11 18 -8 23 4 5 -5 14 -19 21 -14 6 -26 15 -26 20 0 4 -8 16 -17
26 -28 28 -63 80 -63 92 0 5 -4 10 -9 10 -9 0 -21 27 -27 56 -1 6 -14 23 -28
37 -14 14 -26 32 -26 39 0 7 -12 26 -27 42 -14 16 -38 51 -51 79 -14 27 -33
52 -43 54 -10 3 -19 15 -21 27 -2 11 -10 21 -18 22 -31 2 -49 17 -55 45 -4 16
-11 29 -16 29 -5 0 -9 8 -9 18 0 11 -9 27 -19 36 -11 10 -17 25 -14 36 3 10
-10 48 -28 84 -33 65 -33 65 -16 101 16 33 16 38 2 63 -18 31 -47 72 -93 130
-18 22 -32 45 -32 51 0 6 -9 11 -20 11 -10 0 -24 8 -29 18 -6 11 -42 45 -81
77 -64 52 -73 57 -105 51 -24 -5 -42 -2 -60 10 -27 17 -54 24 -190 49 -156 27
-150 24 -153 80 -3 58 -18 92 -44 101 -28 8 -22 27 7 21 19 -3 35 4 60 26 31
27 35 37 35 78 0 29 6 51 15 59 8 7 17 28 21 49 4 20 19 49 35 65 16 15 30 40
30 55 1 14 4 37 7 51 9 43 2 313 -9 365 -21 92 -75 189 -142 251 -123 114
-199 145 -287 117z m-870 -1978 c8 -9 30 -15 56 -15 l44 0 0 -42 c0 -23 -4
-69 -9 -102 -31 -200 -40 -314 -28 -361 2 -11 8 -40 12 -65 9 -54 20 -70 49
-70 14 0 22 -7 23 -22 2 -13 5 -39 6 -58 5 -41 -24 -115 -44 -116 -8 0 -26 -6
-40 -13 l-25 -13 -2 -301 c-1 -167 -6 -305 -11 -310 -15 -15 -70 9 -94 40 -40
49 -137 194 -137 204 0 5 -4 15 -10 22 -49 61 -61 80 -72 123 -6 27 -18 57
-26 66 -7 9 -20 63 -27 121 -8 57 -17 117 -20 133 -26 138 -26 154 -6 183 11
15 27 33 35 40 11 10 13 18 6 31 -14 26 -12 40 5 40 8 0 15 7 15 16 0 9 9 29
21 45 11 16 18 29 15 29 -6 0 23 78 54 145 10 22 23 54 29 70 7 17 34 55 61
85 28 30 58 67 67 83 19 30 35 34 53 12z m1609 -135 c59 -114 66 -136 50 -167
-9 -16 -8 -38 5 -93 9 -40 16 -90 16 -111 0 -21 5 -50 11 -66 11 -29 29 -115
34 -167 2 -20 -13 -61 -46 -125 -26 -53 -63 -127 -81 -166 -23 -48 -42 -74
-61 -83 -15 -7 -27 -18 -27 -23 0 -6 -11 -25 -25 -43 -14 -18 -28 -47 -31 -65
-5 -24 -16 -37 -47 -52 -22 -12 -45 -25 -51 -30 -6 -5 -27 -23 -46 -39 -25
-22 -36 -27 -41 -18 -4 7 -9 84 -12 171 -3 101 -10 163 -17 172 -7 8 -9 22 -6
31 3 8 3 34 0 56 -5 28 -13 42 -29 48 -29 11 -36 41 -24 104 7 36 17 57 37 72
15 12 24 25 20 29 -3 4 2 15 13 26 10 10 19 27 19 37 0 10 11 29 25 42 14 13
23 30 21 37 -3 7 -1 15 4 18 4 3 8 29 8 58 0 64 25 170 63 262 52 124 49 120
103 117 35 -3 47 0 45 10 -3 28 1 58 10 58 4 0 31 -45 60 -100z m-1954 -259
c-8 -17 -19 -33 -25 -36 -6 -3 -7 -17 -4 -31 5 -18 2 -24 -9 -24 -29 0 -29 37
-1 79 32 50 63 58 39 12z m2109 -39 c38 -65 76 -144 76 -158 0 -9 -9 -18 -19
-21 -11 -3 -21 -13 -24 -24 -3 -10 -10 -19 -16 -19 -14 0 -33 37 -23 44 5 3 5
29 0 58 -23 147 -22 168 6 120z m356 -547 c0 -14 -7 -28 -15 -31 -17 -7 -109
-138 -119 -171 -8 -24 -35 -38 -49 -24 -10 10 61 130 78 131 6 1 27 28 49 60
42 65 56 74 56 35z m-1435 -1008 c17 -37 16 -67 -5 -92 -16 -19 -16 -57 -1
-140 65 -350 83 -765 33 -765 -4 0 -16 22 -26 50 -10 27 -26 52 -36 55 -13 4
-19 21 -24 66 -10 90 -5 681 6 705 7 16 6 28 -5 45 -13 22 -13 28 5 67 10 23
23 42 28 42 5 0 16 -15 25 -33z"/>
<path d="M3831 5126 c-10 -11 -35 -13 -126 -9 -119 6 -245 -8 -300 -32 -16 -8
-51 -20 -76 -29 -55 -18 -200 -102 -246 -143 -18 -15 -52 -45 -77 -66 -114
-95 -235 -302 -282 -482 -23 -86 -27 -125 -31 -285 -2 -103 -8 -186 -14 -188
-5 -2 -9 -24 -9 -49 0 -36 -4 -46 -19 -50 -16 -4 -21 -17 -26 -71 -9 -97 -13
-98 -14 -2 -1 47 -4 102 -7 123 l-7 38 -128 -2 c-70 0 -131 1 -136 3 -11 6
-82 2 -89 -5 -9 -9 -23 -253 -24 -414 0 -145 -1 -153 -20 -153 -36 0 -43 -33
-35 -171 7 -120 9 -129 31 -144 35 -23 30 -48 -19 -88 -55 -45 -60 -81 -17
-127 33 -35 39 -70 15 -90 -18 -15 -20 -54 -2 -68 9 -8 13 -77 16 -279 l3
-269 -27 -12 c-24 -11 -26 -16 -20 -49 3 -20 11 -88 16 -152 5 -64 12 -138 15
-166 3 -28 -1 -90 -10 -139 -19 -107 -10 -139 39 -144 17 -2 33 -7 37 -11 4
-3 -1 -36 -11 -71 l-18 -65 -44 -3 c-24 -2 -47 -7 -52 -11 -4 -4 -18 -78 -31
-165 -18 -125 -21 -159 -10 -163 10 -4 10 -13 -1 -51 -8 -26 -13 -54 -12 -62
1 -8 -5 -41 -12 -72 -13 -51 -12 -63 4 -113 9 -31 23 -59 30 -62 8 -2 103 -9
212 -14 109 -5 207 -9 218 -10 11 0 76 4 145 10 69 6 132 11 141 11 22 0 59
104 59 167 0 40 5 54 25 73 14 13 30 40 35 60 6 22 9 177 7 378 -2 328 -3 342
-23 369 -25 33 -90 59 -126 50 -51 -13 -86 -54 -98 -112 -6 -30 -16 -55 -21
-55 -5 0 -9 65 -9 153 -1 442 -1 429 -20 434 -16 4 -17 22 -19 191 0 103 -4
325 -7 493 -4 219 -3 308 5 313 8 5 11 -16 11 -68 l0 -75 33 -3 32 -3 -3 -250
c-2 -137 -8 -254 -13 -259 -5 -6 -9 -47 -9 -92 0 -74 2 -85 23 -101 22 -18 22
-21 19 -218 -2 -110 0 -210 2 -221 5 -17 20 -25 73 -39 106 -26 106 -27 172
-138 34 -58 68 -110 74 -115 13 -11 37 -14 262 -33 83 -6 152 -13 154 -15 4
-4 -30 -96 -42 -112 -5 -6 -22 -12 -38 -12 -39 0 -44 -15 -64 -181 -25 -199
-24 -287 2 -331 l21 -36 94 -5 c51 -3 116 -11 143 -17 61 -14 80 -15 125 -5
19 4 71 9 116 12 l81 4 21 38 c12 21 19 41 16 44 -3 3 -1 37 5 76 12 77 0 294
-19 364 -10 33 -14 37 -44 37 -31 0 -34 3 -54 57 -12 31 -20 59 -18 60 2 2 70
8 152 14 82 5 180 13 218 17 l70 7 70 117 71 117 76 17 c42 9 82 20 88 23 8 5
13 82 18 230 6 201 8 223 25 232 15 8 18 22 18 94 0 52 -4 86 -12 91 -8 5 -9
73 -4 258 4 137 8 251 9 252 1 1 15 4 30 6 l28 3 -1 -345 c0 -190 -2 -354 -5
-365 -2 -11 -4 -44 -4 -72 -1 -40 -5 -53 -16 -53 -10 0 -15 -10 -15 -27 0 -16
-3 -145 -6 -288 -6 -239 -14 -310 -29 -259 -15 48 -58 125 -78 139 -51 36
-146 4 -172 -58 -10 -25 -14 -102 -15 -307 -2 -307 7 -413 39 -458 12 -17 25
-58 30 -93 5 -35 18 -86 28 -114 l19 -50 70 -5 c42 -4 80 -13 94 -23 29 -20
101 -23 133 -5 14 8 95 14 231 18 l210 5 23 59 22 59 -19 58 c-11 32 -17 64
-15 71 3 8 -1 33 -9 56 -12 34 -13 47 -4 62 9 15 7 50 -10 165 -11 80 -24 150
-27 155 -3 6 -26 10 -50 10 l-43 0 -22 65 c-12 35 -19 69 -15 75 3 5 21 10 39
10 55 0 61 16 46 128 -7 53 -10 120 -7 147 3 28 10 107 16 176 6 70 15 139 21
153 8 22 6 28 -16 43 l-26 17 3 264 c3 195 7 266 17 274 16 14 15 63 -2 77
-19 16 -9 47 26 92 37 46 31 76 -23 115 -45 34 -50 64 -15 91 29 23 34 49 38
180 2 86 0 106 -15 123 -10 12 -21 18 -26 16 -5 -3 -11 115 -14 262 -3 147 -8
277 -12 289 -7 21 -10 22 -184 20 l-176 -2 -12 -55 c-6 -30 -12 -49 -12 -42
-1 6 -10 12 -21 12 -17 0 -20 7 -20 50 l0 50 -35 0 c-19 0 -35 5 -35 10 0 6
11 10 24 10 22 0 23 3 26 93 9 313 3 358 -77 532 -97 212 -247 374 -454 491
-34 19 -70 34 -80 34 -12 0 -28 14 -41 36 -29 49 -83 69 -107 40z"/>
<path d="M6684 3958 c16 -212 18 -286 11 -432 l-7 -156 -28 0 c-25 0 -28 4
-35 53 -4 28 -9 107 -10 175 -2 68 -5 125 -8 128 -2 2 -7 -42 -11 -98 -11
-172 -27 -268 -46 -268 -26 0 -161 -49 -200 -73 -115 -70 -227 -194 -277 -307
-46 -103 -76 -237 -69 -313 7 -81 22 -107 80 -138 l44 -23 -69 -48 c-230 -162
-405 -416 -470 -683 -55 -228 -23 -529 78 -729 45 -90 108 -182 153 -224 19
-18 58 -54 85 -81 243 -233 481 -335 780 -334 203 0 321 26 476 103 33 16 59
27 59 25 0 -3 36 20 80 50 45 30 85 55 90 55 6 0 10 6 10 13 0 14 41 57 54 57
11 0 31 22 39 44 4 10 13 16 21 13 8 -3 18 4 23 16 6 12 36 58 68 102 73 103
148 257 175 365 31 122 39 354 15 470 -23 110 -78 268 -122 350 -82 152 -248
329 -376 404 -37 21 -67 40 -67 42 0 1 15 12 33 23 59 38 67 48 80 97 13 53 8
126 -17 235 -50 224 -271 437 -501 482 l-70 14 -6 89 c-4 49 -7 200 -8 337
l-1 247 -31 0 -32 0 7 -82z"/>
</g>
</svg>
